<!--?xml version="1.0" encoding="UTF-8"?-->
<svg xmlns="http://www.w3.org/2000/svg" width="256" height="256" viewBox="0 0 256 256">
  <title>Phenomenological Rendezvous Logo – Dark Mode (Transparent, Structured Nodes)</title>

  <!-- Global pattern / qualia space -->
  <circle cx="128" cy="128" r="112" fill="none" stroke="#E6E6E6" stroke-width="8" stroke-linecap="round" stroke-linejoin="round"></circle>

  <!-- Two overlapping internal representational fields -->
  <circle cx="96" cy="128" r="64" fill="none" stroke="#BDBDBD" stroke-width="4"></circle>
  <circle cx="160" cy="128" r="64" fill="none" stroke="#BDBDBD" stroke-width="4"></circle>

  <!-- Structured submodality nodes -->
  <g stroke="#F2F2F2" fill="none" stroke-width="1.5">
    <!-- Row 1 -->
    <circle cx="96" cy="96" r="6"></circle>
    <circle cx="128" cy="96" r="8"></circle>
    <circle cx="160" cy="96" r="6"></circle>
    <!-- Row 2 -->
    <circle cx="96" cy="128" r="8"></circle>
    <circle cx="128" cy="128" r="10"></circle>
    <circle cx="160" cy="128" r="8"></circle>
    <!-- Row 3 -->
    <circle cx="96" cy="160" r="6"></circle>
    <circle cx="128" cy="160" r="8"></circle>
    <circle cx="160" cy="160" r="6"></circle>
  </g>

  <!-- Inner cores -->
  <g fill="#FFFFFF" opacity="0.85">
    <!-- Row 1 -->
    <circle cx="96" cy="96" r="2"></circle>
    <circle cx="128" cy="96" r="2.5"></circle>
    <circle cx="160" cy="96" r="2"></circle>
    <!-- Row 2 -->
    <circle cx="96" cy="128" r="2.5"></circle>
    <circle cx="128" cy="128" r="3"></circle>
    <circle cx="160" cy="128" r="2.5"></circle>
    <!-- Row 3 -->
    <circle cx="96" cy="160" r="2"></circle>
    <circle cx="128" cy="160" r="2.5"></circle>
    <circle cx="160" cy="160" r="2"></circle>
  </g>

  <!-- Central SRT / rendezvous kernel -->
  <rect x="118" y="118" width="20" height="20" fill="none" stroke="#FFFFFF" stroke-width="4" transform="rotate(45 128 128)"></rect>

  <!-- Subtle luminous field -->
  <circle cx="128" cy="128" r="20" fill="url(#glow)" opacity="0.22"></circle>

  <defs>
    </defs></svg>